<?xml version="1.0" encoding="UTF-8" standalone="no"?>
<!-- Created with Inkscape (http://www.inkscape.org/) -->

<svg
   width="48"
   height="48"
   viewBox="0 0 12.7 12.7"
   version="1.1"
   id="svg5"
   inkscape:version="1.1 (c68e22c387, 2021-05-23)"
   sodipodi:docname="Logo-icon.svg"
   xmlns:inkscape="http://www.inkscape.org/namespaces/inkscape"
   xmlns:sodipodi="http://sodipodi.sourceforge.net/DTD/sodipodi-0.dtd"
   xmlns="http://www.w3.org/2000/svg"
   xmlns:svg="http://www.w3.org/2000/svg">
  <sodipodi:namedview
     id="namedview7"
     pagecolor="#ffffff"
     bordercolor="#666666"
     borderopacity="1.0"
     inkscape:pageshadow="2"
     inkscape:pageopacity="0.0"
     inkscape:pagecheckerboard="0"
     inkscape:document-units="mm"
     showgrid="false"
     inkscape:zoom="4.4456084"
     inkscape:cx="-21.031992"
     inkscape:cy="13.833877"
     inkscape:window-width="1920"
     inkscape:window-height="1017"
     inkscape:window-x="1912"
     inkscape:window-y="-8"
     inkscape:window-maximized="1"
     inkscape:current-layer="g1609"
     fit-margin-top="0"
     fit-margin-left="0"
     fit-margin-right="0"
     fit-margin-bottom="0"
     showborder="true"
     units="px" />
  <defs
     id="defs2" />
  <g
     inkscape:label="Layer 1"
     inkscape:groupmode="layer"
     id="layer1"
     transform="translate(-2.695851,-49.902177)">
    <g
       id="g1603"
       transform="translate(0.28945266,-0.138451)">
      <g
         id="g1609"
         transform="translate(-0.14712056,0.70786158)">
        <g
           id="g1899"
           transform="translate(0.4612464)">
          <path
             id="rect68241"
             style="color:#000000;fill:#ff0000;stroke-width:0.999953;stroke-linecap:round;stroke-linejoin:round;-inkscape-stroke:none;paint-order:stroke markers fill"
             d="m 21.035156,2.5839844 v 0.083984 L 21.056641,2.625 22.822266,6.1582031 c 1.184222,2.3683578 1.823544,3.5725371 1.9375,3.6484375 0.331702,0.2209514 0.546346,0.1372367 2.347656,-0.9160156 0.956033,-0.5590186 1.745247,-1.007043 1.753906,-0.9960938 0.0098,0.010961 -0.456983,2.4863548 -1.035156,5.5019528 -0.578217,3.015602 -1.052779,5.607916 -1.054688,5.759766 -0.0071,0.538171 0.61402,0.891102 1.03711,0.589844 0.0827,-0.05896 1.133432,-1.180529 2.333984,-2.492188 1.200552,-1.311655 2.207285,-2.359623 2.238281,-2.328125 0.03099,0.03175 0.286453,0.610681 0.566407,1.285157 0.586503,1.413135 0.737786,1.624066 1.160156,1.617187 0.158627,-0.0025 1.518812,-0.273178 3.021484,-0.601563 1.502684,-0.328403 2.736752,-0.592444 2.744141,-0.58789 0.0072,0.0049 -0.430528,1.396771 -0.974609,3.095703 -0.544079,1.698932 -0.990386,3.143126 -0.990235,3.208984 1.4e-4,0.06588 0.06032,0.216883 0.132813,0.335938 0.10371,0.170079 0.37834,0.33216 1.279296,0.753906 0.630637,0.295181 1.137491,0.560032 1.126954,0.587891 -0.01096,0.02759 -2.158398,1.808807 -4.773438,3.958984 -2.61504,2.150181 -4.865343,4.019946 -5,4.154297 -0.18342,0.183005 -0.244833,0.302971 -0.242187,0.480469 0.0015,0.130242 0.277758,1.001142 0.611328,1.933594 0.333505,0.932458 0.601338,1.700636 0.595703,1.707031 -0.0057,0.0064 -1.990256,-0.344878 -4.410156,-0.779297 -2.419875,-0.434419 -4.536654,-0.79114 -4.703125,-0.792969 -0.392587,-0.0049 -0.710955,0.188972 -0.890625,0.541016 l -0.142578,0.28125 0.207031,4.080078 H 42.851304 V 2.5839844 Z"
             transform="matrix(0.26458333,0,0,0.26458333,2.4063983,50.040628)"
             sodipodi:nodetypes="ccccccccccscccccsccccsscccsccccccc" />
          <path
             id="path834"
             style="color:#000000;-inkscape-font-specification:'Palatino Linotype, Normal';fill:#000000;stroke-width:0.0477141;-inkscape-stroke:none"
             d="m 5.4072866,56.154007 c -0.3994317,0.01936 -0.7451642,0.09349 -1.0367818,0.222819 -0.3399624,0.152089 -0.6307237,0.395121 -0.8722758,0.729119 -0.2385702,0.333998 -0.357823,0.74559 -0.357823,1.234659 0,0.399604 0.093949,0.776839 0.2818227,1.131712 0.1878738,0.351892 0.466703,0.63072 0.8364867,0.836488 0.3727657,0.202784 0.7962209,0.304138 1.270379,0.304138 0.2803197,0 0.5695723,-0.03723 0.8677849,-0.111789 0.2982125,-0.07455 0.542754,-0.193876 0.7336099,-0.357891 l 0.1028767,-0.313121 -0.1028767,-0.09839 c -0.3190877,0.366802 -0.7753909,0.550173 -1.368834,0.550173 -0.3966229,0 -0.7365527,-0.09093 -1.0198545,-0.27284 C 4.4614807,59.824192 4.2571936,59.572176 4.1289622,59.253088 4.0007306,58.934 3.9366123,58.574663 3.9366123,58.175059 c 0,-0.590461 0.1505923,-1.031815 0.4517872,-1.324063 C 4.6592722,56.585487 4.998935,56.43948 5.4072866,56.41275 Z m 1.0890839,0.08167 c -0.00276,0.146244 -0.00953,0.284468 -0.020866,0.414063 0.035658,0.02491 0.069158,0.05173 0.1003204,0.08049 0.1192852,0.107357 0.192318,0.213238 0.219157,0.317613 0.029821,0.104374 0.046211,0.275813 0.049193,0.514383 l 0.026876,0.02688 h 0.187859 l 0.022385,-0.02688 c 0.01491,-0.486087 0.049198,-0.85139 0.1028769,-1.095924 L 7.166279,56.43051 C 6.9474069,56.346941 6.7240938,56.282069 6.496371,56.235673 Z"
             sodipodi:nodetypes="cccsccsscccscsscccccccccccccc" />
          <path
             style="color:#000000;-inkscape-font-specification:'Palatino Linotype';fill:#000000;stroke-width:0.233974;-inkscape-stroke:none;paint-order:stroke markers fill"
             d="m 7.2782568,50.724037 v 0.225432 l -0.03156,0.03156 q -0.3156046,0.009 -0.4869327,0.02705 -0.1668194,0.01803 -0.2434661,0.06763 -0.076647,0.04959 -0.1036985,0.234449 -0.022544,0.180346 -0.022544,0.504967 l -0.00902,1.036986 v 3.2372 q 0,0.712364 -0.1262416,1.163227 -0.1262418,0.455372 -0.4418463,0.838606 -0.3156043,0.387741 -0.6537519,0.572597 -0.3336389,0.189362 -0.6627692,0.189362 -0.094682,0 -0.1893627,-0.02254 0.00902,-0.180346 0.013525,-0.36069 0,-0.112717 -0.013525,-0.33364 l 0.085664,-0.05861 q 0.2299404,0.171327 0.4824242,0.171327 0.2209229,0 0.3606907,-0.08566 0.1442762,-0.08115 0.2028882,-0.225431 0.058612,-0.139769 0.072138,-0.518494 0.013525,-0.378725 0.013525,-0.649243 v -3.918008 l -0.00902,-0.879183 q -0.00451,-0.513985 -0.027049,-0.66277 -0.022543,-0.148785 -0.067629,-0.19838 -0.040578,-0.04959 -0.162311,-0.08115 -0.1172245,-0.03156 -0.5996483,-0.0496 l -0.031559,-0.03156 v -0.225432 l 0.031561,-0.03156 q 1.1406844,0.03607 1.2939781,0.03607 0.1578022,0 1.2939781,-0.03607 z"
             id="path987" />
        </g>
      </g>
    </g>
  </g>
</svg>
