<?xml version="1.0" encoding="UTF-8" standalone="no"?>
<!-- Created with Inkscape (http://www.inkscape.org/) -->

<svg
   width="270.51898mm"
   height="102.06216mm"
   viewBox="0 0 270.51898 102.06216"
   version="1.1"
   id="svg5"
   inkscape:version="1.1 (c68e22c387, 2021-05-23)"
   sodipodi:docname="Logo.svg"
   xmlns:inkscape="http://www.inkscape.org/namespaces/inkscape"
   xmlns:sodipodi="http://sodipodi.sourceforge.net/DTD/sodipodi-0.dtd"
   xmlns="http://www.w3.org/2000/svg"
   xmlns:svg="http://www.w3.org/2000/svg">
  <sodipodi:namedview
     id="namedview7"
     pagecolor="#ffffff"
     bordercolor="#666666"
     borderopacity="1.0"
     inkscape:pageshadow="2"
     inkscape:pageopacity="0.0"
     inkscape:pagecheckerboard="0"
     inkscape:document-units="mm"
     showgrid="false"
     inkscape:zoom="1.1114021"
     inkscape:cx="553.80499"
     inkscape:cy="168.70583"
     inkscape:window-width="1920"
     inkscape:window-height="1017"
     inkscape:window-x="1912"
     inkscape:window-y="-8"
     inkscape:window-maximized="1"
     inkscape:current-layer="layer1"
     fit-margin-top="0"
     fit-margin-left="0"
     fit-margin-right="0"
     fit-margin-bottom="0"
     showborder="true" />
  <defs
     id="defs2" />
  <g
     inkscape:label="Layer 1"
     inkscape:groupmode="layer"
     id="layer1"
     transform="translate(-2.695851,-49.902177)">
    <text
       xml:space="preserve"
       style="font-size:68.52px;line-height:0;font-family:'Palatino Linotype';-inkscape-font-specification:'Palatino Linotype';text-align:start;text-anchor:start;stroke-width:0.356874"
       x="2.6958511"
       y="123.38553"
       id="text1244"><tspan
         sodipodi:role="line"
         style="font-style:normal;font-variant:normal;font-weight:normal;font-stretch:normal;font-size:68.52px;line-height:0.8;font-family:'Palatino Linotype';-inkscape-font-specification:'Palatino Linotype, Normal';font-variant-ligatures:normal;font-variant-caps:all-small-caps;font-variant-numeric:normal;font-variant-east-asian:normal;text-align:start;text-anchor:start;stroke-width:0.356874"
         x="2.6958511"
         y="123.38553"
         id="tspan1246">Cloutier</tspan><tspan
         sodipodi:role="line"
         style="font-style:normal;font-variant:normal;font-weight:normal;font-stretch:normal;font-size:30.9292px;line-height:0.5;font-family:'Palatino Linotype';-inkscape-font-specification:'Palatino Linotype, Normal';font-variant-ligatures:normal;font-variant-caps:all-small-caps;font-variant-numeric:normal;font-variant-east-asian:normal;text-align:start;text-anchor:start;stroke-width:0.356874"
         x="2.6958511"
         y="150.79353"
         id="tspan15222"><tspan
           style="font-size:23.7917px;stroke-width:0.356874"
           id="tspan74146"> </tspan><tspan
           style="font-size:30.6917px"
           id="tspan19153">for ward 5 council</tspan></tspan></text>
    <text
       xml:space="preserve"
       style="font-size:69.0629px;line-height:1.25;font-family:'Palatino Linotype';-inkscape-font-specification:'Palatino Linotype';stroke-width:0.359702"
       x="42.354897"
       y="83.101685"
       id="text59250"><tspan
         sodipodi:role="line"
         id="tspan59248"
         style="stroke-width:0.359702"
         x="42.354897"
         y="83.101685"><tspan
           style="font-style:normal;font-variant:normal;font-weight:normal;font-stretch:normal;font-size:69.0629px;font-family:'Palatino Linotype';-inkscape-font-specification:'Palatino Linotype, Normal';font-variant-ligatures:normal;font-variant-caps:small-caps;font-variant-numeric:normal;font-variant-east-asian:normal;stroke-width:0.359702"
           id="tspan60968">acob</tspan></tspan></text>
    <g
       aria-label="J"
       id="text64318"
       style="font-size:50.8px;line-height:1.25;font-family:'Palatino Linotype';-inkscape-font-specification:'Palatino Linotype';stroke:#ffffff;stroke-width:1.28723171;stroke-miterlimit:4;stroke-dasharray:none;paint-order:stroke markers fill"
       transform="matrix(1.3595066,0,0,1.3595066,-59.789747,18.615734)">
      <path
         d="m 70.375679,23.693335 v 1.240235 l -0.173633,0.173633 q -1.736328,0.04961 -2.678906,0.148828 -0.917774,0.09922 -1.339453,0.37207 -0.42168,0.272852 -0.570508,1.289844 -0.124024,0.992187 -0.124024,2.778125 l -0.04961,5.705078 v 17.809765 q 0,3.919141 -0.694531,6.399609 -0.694531,2.505274 -2.43086,4.613672 -1.736328,2.133203 -3.596679,3.150196 -1.835547,1.041796 -3.646289,1.041796 -0.520899,0 -1.041797,-0.124023 0.04961,-0.992188 0.07441,-1.984375 0,-0.620117 -0.07441,-1.835547 l 0.471289,-0.322461 q 1.265039,0.942578 2.654102,0.942578 1.215429,0 1.984375,-0.471289 0.793749,-0.446484 1.11621,-1.240234 0.322461,-0.768945 0.396875,-2.852539 0.07441,-2.083594 0.07441,-3.571875 V 35.401148 L 60.67704,30.564234 Q 60.65223,27.736499 60.528212,26.917945 60.404189,26.09939 60.156142,25.826539 59.932899,25.553687 59.263173,25.380054 58.618251,25.206421 55.96415,25.107203 L 55.790523,24.93357 v -1.240235 l 0.173633,-0.173632 q 6.275585,0.198437 7.118945,0.198437 0.868164,0 7.118945,-0.198437 z"
         id="path68144"
         style="stroke:#ffffff;stroke-width:1.28723171;stroke-miterlimit:4;stroke-dasharray:none;paint-order:stroke markers fill" />
    </g>
    <path
       id="rect68241"
       style="fill:#ff0000;stroke:none;stroke-width:1.35951;stroke-linecap:round;stroke-linejoin:round;paint-order:stroke markers fill"
       d="m 204.24728,53.853572 h 61.74178 v 28.483586 h -61.74178 z" />
    <path
       style="fill:#ffffff;stroke-width:0.050971"
       d="m 203.62378,85.105282 c -6.9e-4,-0.105131 0.0719,-1.604428 0.16144,-3.33178 l 0.16269,-3.140638 -0.10264,-0.197959 c -0.12888,-0.248463 -0.35793,-0.385461 -0.63995,-0.382817 -0.1195,0.0011 -1.63891,0.253993 -3.37632,0.561939 -1.73742,0.307946 -3.16284,0.555513 -3.16758,0.550149 -0.005,-0.0053 0.18737,-0.548773 0.42693,-1.207573 0.23957,-0.658799 0.4367,-1.271221 0.43808,-1.360938 0.001,-0.09268 -0.0404,-0.211211 -0.0969,-0.274491 -0.0546,-0.06126 -1.67058,-1.383915 -3.59091,-2.939246 -1.92033,-1.555332 -3.49779,-2.844062 -3.50546,-2.863846 -0.008,-0.01978 0.35716,-0.206366 0.81075,-0.414629 0.65098,-0.298905 0.84444,-0.410869 0.91848,-0.531574 0.0515,-0.0841 0.0939,-0.190986 0.0939,-0.237521 1.1e-4,-0.04654 -0.31954,-1.066696 -0.71033,-2.267026 -0.39079,-1.20033 -0.70618,-2.185408 -0.70085,-2.189062 0.005,-0.0037 0.84688,0.174117 1.87012,0.395046 1.02323,0.220931 1.99806,0.415274 2.16627,0.431875 0.27991,0.02763 0.31661,0.01926 0.43324,-0.09859 0.07,-0.07083 0.29706,-0.532923 0.50438,-1.026891 0.20733,-0.493967 0.39404,-0.908687 0.41494,-0.921601 0.0209,-0.01291 0.75405,0.745245 1.62923,1.684797 0.87518,0.939554 1.63309,1.730682 1.68426,1.758064 0.31222,0.167088 0.71366,-0.08402 0.70866,-0.443261 -10e-4,-0.107278 -0.34246,-1.938269 -0.75771,-4.068855 -0.41524,-2.130587 -0.74914,-3.880824 -0.74197,-3.889418 0.007,-0.0086 0.55152,0.296052 1.20968,0.676986 0.65817,0.380934 1.26686,0.712736 1.35265,0.737338 0.11487,0.03294 0.20024,0.02243 0.32388,-0.03985 0.19138,-0.09639 0.0941,0.07986 1.65588,-2.997563 l 1.06451,-2.097449 1.2691,2.496595 c 0.85058,1.673293 1.30936,2.52298 1.39121,2.576607 0.23825,0.156115 0.39201,0.0971 1.68582,-0.647055 0.68668,-0.39496 1.2536,-0.711781 1.25982,-0.704048 0.007,0.0077 -0.32847,1.757267 -0.74375,3.887854 -0.41531,2.130586 -0.75622,3.961571 -0.75759,4.068855 -0.005,0.380231 0.44168,0.630172 0.74557,0.417325 0.0594,-0.04164 0.81362,-0.833941 1.67593,-1.760656 0.86231,-0.926714 1.58604,-1.666725 1.6083,-1.644469 0.0223,0.02226 0.20497,0.430359 0.40604,0.906893 0.42126,0.998407 0.53059,1.148309 0.83396,1.14345 0.11393,-0.0018 1.09016,-0.193156 2.16947,-0.425182 1.07932,-0.232027 1.96675,-0.419232 1.97206,-0.416013 0.005,0.0033 -0.31006,0.987943 -0.70085,2.188273 -0.39079,1.20033 -0.71044,2.220492 -0.71033,2.267026 1e-4,0.04654 0.0428,0.153419 0.0949,0.237521 0.0745,0.120153 0.27119,0.234157 0.91832,0.532107 0.45296,0.208558 0.81736,0.395298 0.80979,0.414981 -0.008,0.01969 -1.55055,1.278722 -3.42883,2.797867 -1.87828,1.519146 -3.49419,2.839743 -3.59091,2.934663 -0.13173,0.129316 -0.17521,0.214537 -0.17333,0.339935 0.001,0.09204 0.19851,0.706372 0.43809,1.365171 0.23955,0.6588 0.43224,1.201519 0.42819,1.206042 -0.004,0.0045 -1.42947,-0.242896 -3.16759,-0.549821 -1.7381,-0.306925 -3.25801,-0.55911 -3.37758,-0.560409 -0.28198,-0.0031 -0.51089,0.133748 -0.63994,0.38249 l -0.10264,0.197959 0.16269,3.140638 c 0.0895,1.727351 0.16214,3.226652 0.16146,3.33178 l -0.001,0.191141 h -0.63713 -0.63715 l -10e-4,-0.191141 z"
       id="path74296" />
  </g>
</svg>
